<svg version="1" xmlns="http://www.w3.org/2000/svg" width="1116" height="1116" viewBox="0 0 837.000000 837.000000"><path d="M388.2 363.7l.3 201.8h50l.5-123 .5-122.9L447 330c4.1 5.8 13.2 18.5 20.2 28.2 7.1 9.8 21.3 29.6 31.6 44 10.4 14.5 28.3 39.3 39.7 55.3C550 473.4 564 493 569.7 501c5.8 8 10.8 14.6 11.2 14.8.8.2 7.8-9.5 42.6-58.8 4.5-6.3 17.5-24.8 29-41s23.6-33.4 26.9-38.1c32.8-46.6 46.1-65 46.3-64.3.2.5.4 57.4.5 126.4l.3 125.5h51.6l.2-201.7c.1-111-.1-201.8-.4-201.8-.6 0-21.9 29.1-26.9 36.7-.8 1.2-8.9 12.5-17.9 25-9.1 12.5-29.1 40.3-44.5 61.8-15.3 21.4-33 46-39.1 54.5-6.1 8.5-23.2 32.4-38 53-14.7 20.6-27.5 38.3-28.4 39.3-1.6 1.6-1.9 1.5-5.1-3-1.8-2.7-7.4-10.7-12.5-17.8-10.8-15.3-53.7-76-77.5-109.5-9.1-12.9-28.7-40.6-43.5-61.5-43.3-61.4-55.6-78.5-56-78.5-.3 0-.4 90.8-.3 201.7zM64.5 174.2c-.3.7-.4 89-.3 196.3l.3 195h52l.5-72 .5-72 40.5-.6c31.7-.4 42.4-.9 49.2-2.2 39.8-7.7 69.6-29.1 84.9-61.2 15.7-33 18.3-74.8 6.6-109-5.1-14.9-13-27.1-25.6-39.6-18.7-18.4-39.7-28.1-72.6-33.5-13.8-2.3-135.2-3.4-136-1.2zm130 50.8c20.6 3 36.3 12.5 46.9 28.5 14.8 22.3 16.6 50.8 4.7 75.9-4.7 10-10.1 16.9-18.9 24.2-9 7.4-18.6 12-30.2 14.4-8.4 1.7-13.7 2-44.7 2H117V224h35.3c19.3 0 38.4.5 42.2 1z"/></svg>